<svg id="Mascot" xmlns="http://www.w3.org/2000/svg" viewBox="0 0 68.3 7.84"><defs><style>.cls-1{fill:#fff;}.cls-2{fill:#2ab6b9;}</style></defs><title>Design Cuts Logo Top Menu</title><path class="cls-1" d="M209,844.76a3.65,3.65,0,0,1-4,3.8h-3.3V841H205A3.64,3.64,0,0,1,209,844.76Zm-1.85,0a2.09,2.09,0,0,0-2.19-2.3h-1.43v4.59h1.43A2.09,2.09,0,0,0,207.13,844.78Z" transform="translate(-201.7 -840.86)"/><path class="cls-1" d="M211.6,842.48v1.57h2.86v1.42H211.6v1.6h3.72v1.49h-5.53V841h5.51v1.49Z" transform="translate(-201.7 -840.86)"/><path class="cls-1" d="M216.15,847.33v-.13l.89-1h.13a3.06,3.06,0,0,0,2.09,1c.75,0,1.21-.3,1.21-.74,0-.64-.73-.73-1.66-1s-2.3-.9-2.3-2.31,1.16-2.23,2.85-2.23A3.74,3.74,0,0,1,222.2,842v.12l-.9,1h-.13a2.53,2.53,0,0,0-1.79-.83c-.6,0-1,.26-1,.68s.57.69,1.18.9c1.3.41,2.8.81,2.8,2.5,0,1.48-1.34,2.3-3,2.3A4.14,4.14,0,0,1,216.15,847.33Z" transform="translate(-201.7 -840.86)"/><path class="cls-1" d="M225.1,841v7.57h-1.81V841Z" transform="translate(-201.7 -840.86)"/><path class="cls-1" d="M233.81,844.87A3.62,3.62,0,0,1,230,848.7a3.92,3.92,0,1,1,0-7.84,4.08,4.08,0,0,1,3.16,1.45v.14l-1.12.94h-.14a2.36,2.36,0,0,0-1.85-.89,2.28,2.28,0,0,0,0,4.56,2.13,2.13,0,0,0,1.44-.53,1.76,1.76,0,0,0,.56-1h-2v-1.34h3.59l.14.12A5.33,5.33,0,0,1,233.81,844.87Z" transform="translate(-201.7 -840.86)"/><path class="cls-1" d="M241.47,841v7.6h-1.13l-3.84-4.5v4.47h-1.8V841h1.12l3.83,4.51V841Z" transform="translate(-201.7 -840.86)"/><path class="cls-2" d="M242.44,844.78a3.89,3.89,0,0,1,4-3.92,4,4,0,0,1,3.14,1.48v.11l-.81.65h-.09a2.8,2.8,0,0,0-2.22-1.08,2.76,2.76,0,0,0,0,5.51,2.8,2.8,0,0,0,2.22-1.08h.09l.81.65v.11a4,4,0,0,1-3.15,1.49A3.89,3.89,0,0,1,242.44,844.78Z" transform="translate(-201.7 -840.86)"/><path class="cls-2" d="M251.77,841v4.45a2,2,0,1,0,4.07,0V841h1.26v4.43a3.31,3.31,0,0,1-6.62,0V841Z" transform="translate(-201.7 -840.86)"/><path class="cls-2" d="M261.62,848.56h-1.29v-6.47h-2.44V841h6.18v1.1h-2.45Z" transform="translate(-201.7 -840.86)"/><path class="cls-2" d="M264.15,847.25v-.1l.7-.72h.1a3,3,0,0,0,2.2,1.15c1,0,1.52-.44,1.52-1.05,0-.91-1-1-2.09-1.42-.9-.31-2.05-.81-2.05-2.14s1.07-2.11,2.64-2.11a3.33,3.33,0,0,1,2.66,1.15v.1l-.69.72h-.09a2.44,2.44,0,0,0-1.85-.89c-.79,0-1.35.38-1.35.95s.61.87,1.33,1.13c1.28.44,2.82.8,2.82,2.49,0,1.36-1.19,2.19-2.77,2.19A3.82,3.82,0,0,1,264.15,847.25Z" transform="translate(-201.7 -840.86)"/></svg>